<svg width="14" height="14" viewBox="0 0 14 14" fill="none" xmlns="http://www.w3.org/2000/svg">
<path d="M1 1.25C0.873 1.25 0.75 1.264 0.63 1.29C0.774045 0.910668 1.03006 0.584122 1.36406 0.353716C1.69806 0.123311 2.09424 -5.42307e-05 2.5 1.78838e-08H7.5C8.03043 1.78838e-08 8.53914 0.210714 8.91421 0.585786C9.28929 0.960859 9.5 1.46957 9.5 2V4C9.159 4 8.824 4.031 8.5 4.09V2C8.5 1.73478 8.39464 1.48043 8.20711 1.29289C8.01957 1.10536 7.76522 1 7.5 1H2.5C2.34532 0.999806 2.19271 1.03557 2.05422 1.10447C1.91573 1.17336 1.79515 1.27351 1.702 1.397C1.48071 1.29989 1.24166 1.24983 1 1.25ZM4.207 8H2.5C2.23478 8 1.98043 7.89464 1.79289 7.70711C1.60536 7.51957 1.5 7.26522 1.5 7V4.678C1.17376 4.77527 0.826238 4.77527 0.5 4.678V7C0.5 7.53043 0.710714 8.03914 1.08579 8.41421C1.46086 8.78929 1.96957 9 2.5 9H4.022C4.05254 8.66165 4.11447 8.32688 4.207 8V8ZM3 3.5C3 3.36739 3.05268 3.24021 3.14645 3.14645C3.24021 3.05268 3.36739 3 3.5 3H6.5C6.63261 3 6.75979 3.05268 6.85355 3.14645C6.94732 3.24021 7 3.36739 7 3.5C7 3.63261 6.94732 3.75979 6.85355 3.85355C6.75979 3.94732 6.63261 4 6.5 4H3.5C3.36739 4 3.24021 3.94732 3.14645 3.85355C3.05268 3.75979 3 3.63261 3 3.5ZM3.5 5C3.36739 5 3.24021 5.05268 3.14645 5.14645C3.05268 5.24021 3 5.36739 3 5.5C3 5.63261 3.05268 5.75979 3.14645 5.85355C3.24021 5.94732 3.36739 6 3.5 6H5C5.13261 6 5.25979 5.94732 5.35355 5.85355C5.44732 5.75979 5.5 5.63261 5.5 5.5C5.5 5.36739 5.44732 5.24021 5.35355 5.14645C5.25979 5.05268 5.13261 5 5 5H3.5ZM1.75 3C1.75 3.19891 1.67098 3.38968 1.53033 3.53033C1.38968 3.67098 1.19891 3.75 1 3.75C0.801088 3.75 0.610322 3.67098 0.46967 3.53033C0.329018 3.38968 0.25 3.19891 0.25 3C0.25 2.80109 0.329018 2.61032 0.46967 2.46967C0.610322 2.32902 0.801088 2.25 1 2.25C1.19891 2.25 1.38968 2.32902 1.53033 2.46967C1.67098 2.61032 1.75 2.80109 1.75 3V3ZM14 9.5C14 10.0909 13.8836 10.6761 13.6575 11.2221C13.4313 11.768 13.0998 12.2641 12.682 12.682C12.2641 13.0998 11.768 13.4313 11.2221 13.6575C10.6761 13.8836 10.0909 14 9.5 14C8.90905 14 8.32389 13.8836 7.77792 13.6575C7.23196 13.4313 6.73588 13.0998 6.31802 12.682C5.90016 12.2641 5.56869 11.768 5.34254 11.2221C5.1164 10.6761 5 10.0909 5 9.5C5 8.30653 5.47411 7.16193 6.31802 6.31802C7.16193 5.47411 8.30653 5 9.5 5C10.6935 5 11.8381 5.47411 12.682 6.31802C13.5259 7.16193 14 8.30653 14 9.5V9.5ZM10 7.5C10 7.36739 9.94732 7.24021 9.85355 7.14645C9.75979 7.05268 9.63261 7 9.5 7C9.36739 7 9.24021 7.05268 9.14645 7.14645C9.05268 7.24021 9 7.36739 9 7.5V9H7.5C7.36739 9 7.24021 9.05268 7.14645 9.14645C7.05268 9.24021 7 9.36739 7 9.5C7 9.63261 7.05268 9.75979 7.14645 9.85355C7.24021 9.94732 7.36739 10 7.5 10H9V11.5C9 11.6326 9.05268 11.7598 9.14645 11.8536C9.24021 11.9473 9.36739 12 9.5 12C9.63261 12 9.75979 11.9473 9.85355 11.8536C9.94732 11.7598 10 11.6326 10 11.5V10H11.5C11.6326 10 11.7598 9.94732 11.8536 9.85355C11.9473 9.75979 12 9.63261 12 9.5C12 9.36739 11.9473 9.24021 11.8536 9.14645C11.7598 9.05268 11.6326 9 11.5 9H10V7.5Z" fill="#5FA4F9"/>
</svg>
