<svg width="16" height="16" viewBox="0 0 16 16" fill="none" xmlns="http://www.w3.org/2000/svg">
<path d="M14.222 6.687C14.4574 6.81641 14.6538 7.00667 14.7905 7.2379C14.9273 7.46914 14.9994 7.73285 14.9994 8.0015C14.9994 8.27015 14.9273 8.53387 14.7905 8.7651C14.6538 8.99633 14.4574 9.18659 14.222 9.316L4.222 14.815C3.99358 14.9404 3.73641 15.0042 3.47585 15C3.21529 14.9958 2.96031 14.9238 2.73604 14.7911C2.51178 14.6584 2.32596 14.4695 2.19689 14.2431C2.06783 14.0167 1.99997 13.7606 2 13.5V2.502C2.00004 2.24135 2.06801 1.9852 2.1972 1.75881C2.32639 1.53242 2.51234 1.34361 2.73673 1.21097C2.96112 1.07834 3.21619 1.00647 3.47682 1.00244C3.73744 0.998409 3.99462 1.06237 4.223 1.188L14.222 6.687V6.687Z" fill="black"/>
</svg>
